<?xml version="1.0" standalone="no"?><!DOCTYPE svg PUBLIC "-//W3C//DTD SVG 1.1//EN" "http://www.w3.org/Graphics/SVG/1.1/DTD/svg11.dtd"><svg t="1597813883925" class="icon" viewBox="0 0 1024 1024" version="1.1" xmlns="http://www.w3.org/2000/svg" p-id="3392" xmlns:xlink="http://www.w3.org/1999/xlink" width="200" height="200"><defs><style type="text/css"></style></defs><path d="M694.333 64.003A31.247 31.247 0 0 1 663.923 32 31.247 31.247 0 0 1 694.333 0h177.599a129.848 129.848 0 0 1 126.413 133.032v186.94a30.452 30.452 0 1 1-60.777 0v-186.94a67.395 67.395 0 0 0-65.595-69.071z m243.193 624.821a30.452 30.452 0 1 1 60.777 0v202.102A129.848 129.848 0 0 1 871.89 1024H751.927a32.043 32.043 0 0 1 0-64.003h120.005a67.395 67.395 0 0 0 65.594-69.07V688.823zM343.91 959.955a32.043 32.043 0 0 1 0 64.003H151.986A129.848 129.848 0 0 1 25.572 890.885V703.987a31.247 31.247 0 0 1 30.41-32.001 31.247 31.247 0 0 1 30.41 32v186.94a67.395 67.395 0 0 0 65.594 69.071zM86.35 319.971a31.247 31.247 0 0 1-30.368 31.876 31.247 31.247 0 0 1-30.41-31.876v-186.94A129.848 129.848 0 0 1 151.986 0h177.599a31.247 31.247 0 0 1 30.41 32.001 31.247 31.247 0 0 1-30.41 32.002h-177.6a67.395 67.395 0 0 0-65.635 69.029z m425.567 351.847c104.13 0 201.055-56.882 292.912-175.923C713.014 376.979 616.172 319.97 511.96 319.97S310.903 376.98 219.046 495.978c91.857 119.084 188.74 176.008 292.913 176.008z m0 64.003q-186.144 0-340.119-199.673a66.641 66.641 0 0 1 0-80.632q153.933-199.673 340.119-199.673t340.118 199.673a66.641 66.641 0 0 1 0 80.632Q698.102 735.946 511.96 735.988z" p-id="3393"></path><path d="M511.833 585.741a89.009 89.009 0 1 0-89.009-89.009 89.009 89.009 0 0 0 89.01 89.01z m0 71.207A160.216 160.216 0 1 1 672.05 496.69a160.216 160.216 0 0 1-160.216 160.258z" p-id="3394"></path></svg>